<?xml version="1.0" standalone="no"?>
<!DOCTYPE svg PUBLIC "-//W3C//DTD SVG 20010904//EN"
 "http://www.w3.org/TR/2001/REC-SVG-20010904/DTD/svg10.dtd">
<svg version="1.0" xmlns="http://www.w3.org/2000/svg"
 width="410.000000pt" height="410.000000pt" viewBox="0 0 410.000000 410.000000"
 preserveAspectRatio="xMidYMid meet">
<metadata>
Created by potrace 1.14, written by Peter Selinger 2001-2017
</metadata>
<g transform="translate(0.000000,410.000000) scale(0.100000,-0.100000)"
fill="#000000" stroke="none">
<path d="M2315 2629 c-47 -23 -47 -23 -46 -548 0 -273 0 -503 0 -512 1 -9 10
-27 22 -40 l21 -24 858 -2 859 -2 30 25 30 25 1 515 0 515 -29 30 -29 29 -849
-1 c-541 0 -855 -4 -868 -10z"/>
<path d="M2067 2433 c-2 -5 -3 -59 -2 -120 1 -62 -1 -113 -3 -113 -3 0 -19 9
-36 19 -49 31 -144 24 -198 -15 -103 -72 -127 -238 -53 -362 26 -43 109 -85
162 -81 48 3 107 32 127 61 l16 22 1 -29 c1 -17 1 -33 0 -37 0 -5 28 -8 64 -8
l65 0 0 335 0 335 -69 0 c-39 0 -72 -3 -74 -7z m-33 -328 c14 -13 27 -30 27
-37 11 -111 -1 -161 -44 -181 -41 -20 -77 -12 -109 23 -27 30 -33 51 -29 119
5 87 95 132 155 76z"/>
<path d="M22 2350 c0 -49 3 -60 17 -61 9 0 47 -1 86 -2 l70 -2 0 -255 0 -255
73 -3 72 -3 0 261 0 261 68 -2 c115 -2 107 -7 107 59 l-1 57 -246 3 -246 2 0
-60z"/>
<path d="M679 2217 c-19 -12 -38 -33 -44 -45 -10 -24 -27 -30 -24 -9 1 6 1 24
0 40 -1 26 -3 27 -60 27 -47 0 -60 -3 -63 -17 -2 -9 -2 -112 0 -230 l3 -214
72 3 72 3 0 138 c1 134 2 138 27 163 19 19 37 26 67 27 22 1 41 3 42 6 0 4 2
34 3 69 l1 62 -31 0 c-17 0 -46 -10 -65 -23z"/>
<path d="M917 2226 c-94 -34 -146 -109 -152 -214 -5 -101 28 -168 108 -220 38
-23 52 -26 132 -27 86 0 143 7 163 19 4 3 6 24 3 48 l-6 43 -91 -4 c-97 -3
-125 4 -156 43 -36 43 -28 46 132 46 167 0 154 -6 152 74 -2 80 -43 150 -106
183 -42 22 -132 26 -179 9z m133 -114 c23 -28 26 -51 8 -53 -37 -3 -150 0
-154 4 -14 13 28 67 59 75 42 11 63 5 87 -26z"/>
<path d="M1453 2225 c-17 -7 -40 -23 -52 -36 -11 -12 -22 -17 -22 -11 -1 7 -3
17 -4 22 -1 6 -3 15 -4 20 0 6 -28 10 -60 10 -47 0 -60 -3 -63 -17 -2 -9 -2
-112 0 -230 l3 -214 72 3 72 3 1 135 c1 74 2 143 3 153 2 30 38 57 76 57 59 0
69 -28 71 -194 1 -78 2 -144 3 -148 1 -5 33 -8 71 -8 l71 0 -1 168 c-2 152 -4
172 -24 212 -30 60 -72 87 -134 87 -27 0 -63 -5 -79 -12z"/>
</g>
</svg>
